<svg width="30" height="30" viewBox="0 0 30 30" fill="none" xmlns="http://www.w3.org/2000/svg">
<path d="M15 0.746582C12.9545 0.746582 11.3565 1.50487 10.206 3.02144C9.0554 4.53801 8.48011 6.47665 8.48011 8.83735C8.46591 11.7703 9.40341 14.0953 11.2926 15.8121C11.5341 16.0411 11.6193 16.3344 11.5483 16.692L11.0582 17.7222C10.902 18.0655 10.6712 18.3338 10.3658 18.527C10.0604 18.7201 9.41761 18.9955 8.4375 19.3532C8.39489 19.3675 7.49645 19.6608 5.74219 20.2331C3.98793 20.8054 3.05398 21.1201 2.94034 21.1774C1.74716 21.6781 0.965909 22.2003 0.596591 22.744C0.198864 23.6454 0 25.9274 0 29.5901H30C30 25.9274 29.8011 23.6454 29.4034 22.744C29.0341 22.2003 28.2528 21.6781 27.0597 21.1774C26.946 21.1201 26.0121 20.8054 24.2578 20.2331C22.5036 19.6608 21.6051 19.3675 21.5625 19.3532C20.5824 18.9955 19.9396 18.7201 19.6342 18.527C19.3288 18.3338 19.098 18.0655 18.9418 17.7222L18.4517 16.692C18.3807 16.3344 18.4659 16.0411 18.7074 15.8121C20.5966 14.0953 21.5341 11.7703 21.5199 8.83735C21.5199 6.47665 20.9446 4.53801 19.794 3.02144C18.6435 1.50487 17.0455 0.746582 15 0.746582Z" fill="white"/>
</svg>
