<svg width="10" height="28" viewBox="0 0 10 28" fill="none" xmlns="http://www.w3.org/2000/svg">
<path d="M1.75224 0.186996C1.96016 0.186024 2.16559 0.249195 2.35345 0.37187C2.5413 0.494545 2.7068 0.673605 2.83779 0.895893L9.55986 12.3915C9.76456 12.7343 9.87646 13.1643 9.87646 13.6081C9.87646 14.0519 9.76456 14.4819 9.55986 14.8247L2.6012 26.3203C2.36497 26.7116 2.02551 26.9576 1.6575 27.0043C1.28949 27.0511 0.923069 26.8946 0.638854 26.5694C0.354638 26.2442 0.175906 25.7769 0.141976 25.2702C0.108047 24.7636 0.221698 24.2592 0.457928 23.8679L6.67898 13.5985L0.666689 3.32912C0.496504 3.0479 0.388397 2.70544 0.355164 2.34228C0.32193 1.97912 0.364958 1.61044 0.479157 1.27989C0.593357 0.949341 0.773949 0.670742 0.999563 0.47706C1.22518 0.283379 1.48637 0.18272 1.75224 0.186996Z" fill="#2A2A2A"/>
</svg>
