<svg width="10" height="28" viewBox="0 0 10 28" fill="none" xmlns="http://www.w3.org/2000/svg">
<path d="M8.24764 27.4209C8.03972 27.4219 7.83429 27.3587 7.64643 27.236C7.45858 27.1134 7.29307 26.9343 7.16209 26.712L0.440016 15.2164C0.235317 14.8736 0.123413 14.4436 0.123413 13.9998C0.123413 13.556 0.235317 13.126 0.440016 12.7832L7.39868 1.28759C7.63491 0.896329 7.97437 0.650276 8.34238 0.603566C8.71039 0.556856 9.07681 0.713315 9.36102 1.03852C9.64524 1.36373 9.82397 1.83105 9.8579 2.33767C9.89183 2.84429 9.77818 3.34872 9.54195 3.73999L3.3209 14.0094L9.33319 24.2788C9.50337 24.56 9.61148 24.9025 9.64471 25.2656C9.67795 25.6288 9.63492 25.9975 9.52072 26.328C9.40652 26.6586 9.22593 26.9372 9.00031 27.1308C8.7747 27.3245 8.51351 27.4252 8.24764 27.4209Z" fill="#2A2A2A"/>
</svg>
