<svg width="35" height="37" viewBox="0 0 35 37" xmlns="http://www.w3.org/2000/svg">
<path d="M30.741 10.9741C30.489 10.5292 30.1282 10.1584 29.6937 9.89793C29.2592 9.63747 28.7659 9.49622 28.2618 9.48795H9.59518L8.74935 6.12934C8.66389 5.80513 8.47323 5.51995 8.20842 5.32026C7.94361 5.12057 7.62025 5.01813 7.29102 5.02962H4.37435C3.98757 5.02962 3.61664 5.18619 3.34315 5.46489C3.06966 5.74359 2.91602 6.12159 2.91602 6.51573C2.91602 6.90987 3.06966 7.28787 3.34315 7.56657C3.61664 7.84527 3.98757 8.00184 4.37435 8.00184H6.18268L10.2077 23.2493C10.2931 23.5736 10.4838 23.8587 10.7486 24.0584C11.0134 24.2581 11.3368 24.3606 11.666 24.3491H24.791C25.0603 24.3482 25.3241 24.2714 25.5532 24.1272C25.7823 23.9829 25.9677 23.7768 26.0889 23.5317L30.8723 13.7828C31.0796 13.34 31.1761 12.8517 31.1532 12.3616C31.1303 11.8715 30.9887 11.3948 30.741 10.9741Z" fill="currentColor"/>
<path d="M10.9375 31.7797C12.1456 31.7797 13.125 30.7817 13.125 29.5506C13.125 28.3194 12.1456 27.3214 10.9375 27.3214C9.72938 27.3214 8.75 28.3194 8.75 29.5506C8.75 30.7817 9.72938 31.7797 10.9375 31.7797Z" fill="currentColor"/>
<path d="M25.5195 31.7797C26.7277 31.7797 27.707 30.7817 27.707 29.5506C27.707 28.3194 26.7277 27.3214 25.5195 27.3214C24.3114 27.3214 23.332 28.3194 23.332 29.5506C23.332 30.7817 24.3114 31.7797 25.5195 31.7797Z" fill="currentColor"/>
</svg>
