<svg width="194" height="167" viewBox="0 0 194 167" fill="none" xmlns="http://www.w3.org/2000/svg">
<g clip-path="url(#clip0_10831_12982)">
<path opacity="0.3" fill-rule="evenodd" clip-rule="evenodd" d="M61.1517 130.022C56.098 130.022 51.2513 131.971 47.6778 135.44C44.1044 138.909 42.0968 143.613 42.0968 148.519C42.0968 153.425 44.1044 158.13 47.6778 161.599C51.2513 165.067 56.098 167.016 61.1517 167.016C66.2054 167.016 71.0521 165.067 74.6255 161.599C78.199 158.13 80.2066 153.425 80.2066 148.519C80.2066 143.613 78.199 138.909 74.6255 135.44C71.0521 131.971 66.2054 130.022 61.1517 130.022ZM162.326 130.022C157.273 130.022 152.426 131.971 148.853 135.44C145.279 138.909 143.271 143.613 143.271 148.519C143.271 153.425 145.279 158.13 148.853 161.599C152.426 165.067 157.273 167.016 162.326 167.016C167.38 167.016 172.227 165.067 175.8 161.597C179.373 158.128 181.38 153.423 181.38 148.518C181.379 143.612 179.371 138.907 175.798 135.439C172.224 131.97 167.377 130.022 162.323 130.022H162.326ZM192.273 27.3689C191.539 26.481 190.61 25.7646 189.552 25.2728C188.495 24.781 187.337 24.5264 186.164 24.5279H42.5954L35.1305 4.93893C34.5765 3.4852 33.5773 2.23098 32.2672 1.34492C30.9571 0.458868 29.3989 -0.0165288 27.8022 -0.017334H7.81475C5.76031 0.010308 3.79968 0.821933 2.35693 2.24199C0.914184 3.66205 0.105316 5.57638 0.105316 7.57087C0.105316 9.56536 0.914184 11.4796 2.35693 12.8997C3.79968 14.3198 5.76031 15.1314 7.81475 15.1591H22.3557L59.5434 112.655C60.0989 114.106 61.099 115.358 62.4091 116.241C63.7192 117.124 65.2766 117.597 66.8717 117.595C67.1825 117.595 67.4978 117.576 67.8086 117.556L172.057 105.411C173.668 105.224 175.179 104.556 176.383 103.5C177.586 102.443 178.422 101.05 178.774 99.5133L193.82 33.7582C194.07 32.6487 194.061 31.4988 193.793 30.3932C193.526 29.2875 193.006 28.2541 192.273 27.3689ZM171.222 62.4695H139.987V39.7042H176.439L171.222 62.4695ZM100.904 62.4695V39.7042H132.177V62.4695H100.904ZM132.177 70.057V94.7698L100.904 98.4054V70.0468H132.177V70.057ZM93.0866 39.7042V62.4695H57.0641L48.3829 39.7042H93.0866ZM59.9609 70.057H93.0866V99.334L72.0629 101.784L59.9609 70.057ZM140.001 93.8602V70.057H169.498L164.714 90.9754L140.001 93.8602Z" fill="black"/>
</g>
<defs>
<clipPath id="clip0_10831_12982">
<rect width="194" height="167" fill="currentColor"/>
</clipPath>
</defs>
</svg>
