<svg width="30" height="20" viewBox="0 0 30 20" fill="none" xmlns="http://www.w3.org/2000/svg">
<path d="M28.741 6.42163C28.489 5.97672 28.1282 5.60595 27.6937 5.3455C27.2592 5.08504 26.7659 4.94379 26.2618 4.93552H7.59518L6.74935 1.57691C6.66389 1.2527 6.47323 0.967523 6.20842 0.767832C5.94361 0.56814 5.62025 0.465697 5.29102 0.47719H2.37435C1.98757 0.47719 1.61664 0.633762 1.34315 0.912462C1.06966 1.19116 0.916016 1.56916 0.916016 1.9633C0.916016 2.35744 1.06966 2.73544 1.34315 3.01414C1.61664 3.29284 1.98757 3.44941 2.37435 3.44941H4.18268L8.20768 18.6969C8.29314 19.0211 8.4838 19.3063 8.74861 19.506C9.01342 19.7057 9.33678 19.8081 9.66602 19.7966H22.791C23.0603 19.7958 23.3241 19.719 23.5532 19.5747C23.7823 19.4305 23.9677 19.2244 24.0889 18.9793L28.8723 9.23038C29.0796 8.78755 29.1761 8.29929 29.1532 7.80919C29.1303 7.31909 28.9887 6.84239 28.741 6.42163Z" fill="white"/>
</svg>
