<svg width="15" height="15" viewBox="0 0 15 15" fill="none" xmlns="http://www.w3.org/2000/svg">
<path fill-rule="evenodd" clip-rule="evenodd" d="M7.5 0C5.51088 0 3.60322 0.790176 2.1967 2.1967C0.790176 3.60322 0 5.51088 0 7.5C0 9.48912 0.790176 11.3968 2.1967 12.8033C3.60322 14.2098 5.51088 15 7.5 15C8.48491 15 9.46018 14.806 10.3701 14.4291C11.2801 14.0522 12.1069 13.4997 12.8033 12.8033C13.4997 12.1069 14.0522 11.2801 14.4291 10.3701C14.806 9.46018 15 8.48491 15 7.5C15 6.51509 14.806 5.53982 14.4291 4.62987C14.0522 3.71993 13.4997 2.89314 12.8033 2.1967C12.1069 1.50026 11.2801 0.947814 10.3701 0.570904C9.46018 0.193993 8.48491 0 7.5 0ZM11.0305 10.3026C11.2145 10.4842 11.2176 10.7795 11.0376 10.9658C10.9505 11.0544 10.8319 11.105 10.7077 11.1064C10.5834 11.1079 10.4637 11.0602 10.3745 10.9737L7.5 8.15526L4.62632 10.9705C4.58234 11.0138 4.53025 11.048 4.47302 11.0711C4.41579 11.0942 4.35457 11.1057 4.29286 11.105C4.23116 11.1044 4.1702 11.0915 4.11348 11.0672C4.05676 11.0429 4.0054 11.0076 3.96237 10.9634C3.91925 10.9194 3.88524 10.8673 3.86229 10.8101C3.83934 10.753 3.82791 10.6918 3.82864 10.6302C3.82937 10.5686 3.84226 10.5077 3.86656 10.4511C3.89087 10.3945 3.92611 10.3432 3.97026 10.3003L6.83053 7.49921L3.96947 4.69658C3.88097 4.60937 3.83056 4.4907 3.82923 4.36646C3.82789 4.24223 3.87576 4.1225 3.96237 4.03342C4.04947 3.94481 4.16808 3.89425 4.29232 3.89278C4.41656 3.8913 4.53634 3.93902 4.62553 4.02553L7.5 6.84474L10.3737 4.02947C10.4177 3.98618 10.4698 3.95201 10.527 3.92893C10.5842 3.90584 10.6454 3.8943 10.7071 3.89496C10.7688 3.89562 10.8298 3.90847 10.8865 3.93277C10.9432 3.95708 10.9946 3.99236 11.0376 4.03658C11.2192 4.22132 11.2161 4.51816 11.0297 4.69974L8.17026 7.5L11.0305 10.3026Z" fill="#D61C1C"/>
</svg>
