<svg width="20" height="20" viewBox="0 0 15 15" fill="none" xmlns="http://www.w3.org/2000/svg">
<path d="M2.64016 1.27L7.50016 6.13L12.3402 1.29C12.425 1.19972 12.5272 1.12749 12.6406 1.07766C12.754 1.02783 12.8763 1.00141 13.0002 1C13.2654 1 13.5197 1.10536 13.7073 1.29289C13.8948 1.48043 14.0002 1.73478 14.0002 2C14.0025 2.1226 13.9797 2.24439 13.9333 2.35788C13.8869 2.47138 13.8178 2.57419 13.7302 2.66L8.84016 7.5L13.7302 12.39C13.895 12.5512 13.9916 12.7696 14.0002 13C14.0002 13.2652 13.8948 13.5196 13.7073 13.7071C13.5197 13.8946 13.2654 14 13.0002 14C12.8727 14.0053 12.7456 13.984 12.6268 13.9375C12.508 13.8911 12.4002 13.8204 12.3102 13.73L7.50016 8.87L2.65016 13.72C2.56567 13.8073 2.46473 13.8769 2.35316 13.925C2.2416 13.9731 2.12163 13.9986 2.00016 14C1.73495 14 1.48059 13.8946 1.29306 13.7071C1.10552 13.5196 1.00016 13.2652 1.00016 13C0.997831 12.8774 1.02058 12.7556 1.06701 12.6421C1.11344 12.5286 1.18257 12.4258 1.27016 12.34L6.16016 7.5L1.27016 2.61C1.10535 2.44876 1.0087 2.23041 1.00016 2C1.00016 1.73478 1.10552 1.48043 1.29306 1.29289C1.48059 1.10536 1.73495 1 2.00016 1C2.24016 1.003 2.47016 1.1 2.64016 1.27Z" fill="currentColor"/>
</svg>
