<svg width="25" height="25" viewBox="0 0 25 25" fill="none" xmlns="http://www.w3.org/2000/svg">
<g clip-path="url(#clip0_10899_9594)">
<path d="M11.9487 5.60662C11.9487 6.15809 12.4083 6.52574 12.8678 6.52574H17.4634L11.9487 0.0919189V5.60662Z" fill="black"/>
<path d="M24.4485 4.31986L23.3456 3.21692C22.6103 2.48162 21.5074 2.48162 20.7721 3.21692L17.4632 6.52574L16.5441 7.44486H12.8676C11.8566 7.44486 11.0294 6.61768 11.0294 5.60662V0.0919189H1.83824C0.827182 0.0919189 0 0.919101 0 1.93015V23.0699C0 24.0809 0.827182 24.9081 1.83824 24.9081H15.625C16.636 24.9081 17.4632 24.0809 17.4632 23.0699V13.8787L24.4485 6.89339C25.1838 6.1581 25.1838 5.05515 24.4485 4.31986ZM7.62865 20.0367L8.18012 17.1875L10.4779 19.4852L7.62865 20.0367ZM11.2132 18.8419L8.82353 16.4522L19.1176 6.15805L21.5074 8.54775L11.2132 18.8419ZM23.8052 6.24998L22.2426 7.81246L19.8529 5.42275L21.4155 3.86028C21.7831 3.49263 22.3346 3.49263 22.7022 3.86028L23.8052 4.96322C24.1728 5.33086 24.1728 5.88234 23.8052 6.24998Z" fill="black"/>
</g>
<defs>
<clipPath id="clip0_10899_9594">
<rect width="25" height="25" fill="white"/>
</clipPath>
</defs>
</svg>
