<svg width="20" height="20" viewBox="0 0 20 20" fill="none" xmlns="http://www.w3.org/2000/svg">
<path d="M10 0C4.46154 0 0 4.46154 0 10C0 14.4615 2.84615 18.1538 6.84615 19.4615C7.30769 19.5385 7.53846 19.2308 7.53846 19C7.53846 18.7692 7.53846 18 7.53846 17.1538C5 17.6154 4.38462 16.5385 4.15385 16C4.07692 15.6923 3.53846 14.8462 3.15385 14.6154C2.76923 14.4615 2.30769 14 3.15385 13.9231C3.92308 13.9231 4.53846 14.6154 4.69231 14.9231C5.61538 16.4615 7 16 7.61538 15.7692C7.69231 15.1538 8 14.6923 8.23077 14.4615C6 14.2308 3.69231 13.3846 3.69231 9.53846C3.69231 8.46154 4.07692 7.53846 4.69231 6.84615C4.53846 6.53846 4.23077 5.53846 4.76923 4.15385C4.76923 4.15385 5.61538 3.92308 7.53846 5.15385C8.30769 4.92308 9.15385 4.84615 10.0769 4.84615C10.9231 4.84615 11.7692 4.92308 12.6154 5.15385C14.5385 3.84615 15.3846 4.15385 15.3846 4.15385C15.9231 5.53846 15.6154 6.53846 15.4615 6.76923C16.0769 7.46154 16.4615 8.38462 16.4615 9.46154C16.4615 13.3077 14.1538 14.1538 11.9231 14.3846C12.3077 14.6923 12.6154 15.3077 12.6154 16.2308C12.6154 17.5385 12.6154 18.6154 12.6154 19C12.6154 19.2308 12.7692 19.5385 13.3077 19.4615C17.1538 18.1538 20 14.3846 20 10C20 4.46154 15.5385 0 10 0Z" fill="white"/>
</svg>
