<svg width="24" height="20" viewBox="0 0 24 20" fill="none" xmlns="http://www.w3.org/2000/svg">
<path d="M23.8369 10.0921C23.6249 9.80808 18.5045 3.17554 11.9999 3.17554C11.3824 3.1769 10.7664 3.23583 10.1598 3.35155C10.0547 3.36899 9.95417 3.40724 9.86406 3.46406C9.77395 3.52087 9.6961 3.59511 9.63507 3.68242C9.57403 3.76972 9.53105 3.86834 9.50863 3.97248C9.48622 4.07662 9.48483 4.18418 9.50454 4.28887C9.52425 4.39355 9.56467 4.49325 9.62342 4.5821C9.68218 4.67096 9.75808 4.74719 9.84669 4.80631C9.9353 4.86544 10.0348 4.90628 10.1394 4.92644C10.244 4.94659 10.3516 4.94565 10.4558 4.92368C10.9648 4.82658 11.4818 4.77702 11.9999 4.77567C16.7603 4.77567 20.8927 9.10402 22.1648 10.5761C21.3455 11.5236 20.4475 12.4001 19.4806 13.1964C19.3989 13.2629 19.3312 13.3449 19.2813 13.4377C19.2314 13.5305 19.2003 13.6323 19.1898 13.7371C19.1794 13.8419 19.1897 13.9478 19.2202 14.0486C19.2508 14.1495 19.301 14.2433 19.3679 14.3247C19.4348 14.406 19.5171 14.4734 19.6101 14.5229C19.7031 14.5724 19.805 14.603 19.9099 14.613C20.0147 14.6231 20.1206 14.6123 20.2213 14.5813C20.322 14.5503 20.4155 14.4997 20.4966 14.4325C21.726 13.4295 22.8457 12.2991 23.8369 11.0602C23.9427 10.921 23.9999 10.751 23.9999 10.5761C23.9999 10.4013 23.9427 10.2313 23.8369 10.0921Z" fill="black" fill-opacity="0.5"/>
<path d="M18.5605 14.6925L15.0402 11.1722L11.404 7.53591L8.2757 4.40765L4.09935 0.231312C3.94764 0.0817178 3.74271 -0.00148047 3.52965 1.99473e-05C3.31659 0.00152036 3.11286 0.0875965 2.96326 0.239313C2.81367 0.391029 2.73047 0.595958 2.73197 0.809016C2.73347 1.02208 2.81955 1.22581 2.97126 1.37541L6.36754 4.77168C3.98588 6.14301 1.88157 7.94748 0.163033 10.0921C0.0572636 10.2313 0 10.4013 0 10.5762C0 10.751 0.0572636 10.921 0.163033 11.0602C0.37505 11.3442 5.49547 17.9768 12 17.9768C14.0728 17.9289 16.0965 17.3371 17.8685 16.2606L21.2008 19.6049C21.3509 19.755 21.5545 19.8394 21.7668 19.8394C21.9791 19.8394 22.1827 19.755 22.3328 19.6049C22.483 19.4548 22.5673 19.2512 22.5673 19.0388C22.5673 18.8265 22.483 18.6229 22.3328 18.4728L18.5605 14.6925ZM10.7279 9.12004L13.4601 11.8523C13.2855 12.0515 13.0718 12.2128 12.8323 12.3262C12.5928 12.4395 12.3325 12.5025 12.0677 12.5112C11.8029 12.5199 11.5391 12.4742 11.2926 12.3768C11.0462 12.2795 10.8223 12.1326 10.635 11.9452C10.4476 11.7578 10.3007 11.534 10.2033 11.2875C10.106 11.0411 10.0602 10.7773 10.0689 10.5125C10.0776 10.2476 10.1406 9.9874 10.254 9.74789C10.3673 9.50838 10.5286 9.29469 10.7279 9.12004ZM12 16.3766C7.23961 16.3766 3.10727 12.0483 1.83517 10.5762C3.43859 8.69315 5.37503 7.12149 7.54764 5.93978L9.5998 7.98795C9.24319 8.30866 8.95563 8.69863 8.75464 9.1341C8.55365 9.56956 8.44345 10.0414 8.43075 10.5208C8.41805 11.0003 8.50312 11.4773 8.68078 11.9228C8.85844 12.3683 9.12496 12.7729 9.46409 13.1121C9.80323 13.4512 10.2079 13.7177 10.6534 13.8954C11.0989 14.073 11.5759 14.1581 12.0553 14.1454C12.5348 14.1327 13.0066 14.0225 13.4421 13.8215C13.8775 13.6205 14.2675 13.333 14.5882 12.9764L16.6964 15.0845C15.2613 15.8957 13.648 16.3396 12 16.3766Z" fill="black" fill-opacity="0.5"/>
</svg>
