<svg width="14" height="14" viewBox="0 0 14 14" fill="none" xmlns="http://www.w3.org/2000/svg">
<path d="M7.15149 0.281274C4.76868 0.275024 2.67181 1.50784 1.47337 3.37034C1.42024 3.45315 1.47962 3.56252 1.57806 3.56252H2.67649C2.75149 3.56252 2.82181 3.52971 2.86868 3.4719C2.97806 3.33909 3.09524 3.21096 3.21868 3.08909C3.72806 2.58127 4.32024 2.18127 4.97962 1.90315C5.66087 1.61565 6.38587 1.46877 7.13431 1.46877C7.88274 1.46877 8.60774 1.61409 9.28899 1.90315C9.94837 2.18127 10.5406 2.58127 11.0499 3.08909C11.5593 3.5969 11.9577 4.18909 12.2374 4.8469C12.5265 5.52815 12.6718 6.25159 12.6718 7.00002C12.6718 7.74846 12.5249 8.4719 12.2374 9.15315C11.9593 9.81096 11.5593 10.4031 11.0499 10.911C10.5406 11.4188 9.94837 11.8188 9.28899 12.0969C8.60721 12.3849 7.87441 12.5326 7.13431 12.5313C6.38587 12.5313 5.66087 12.3844 4.97962 12.0969C4.32154 11.8191 3.72354 11.4163 3.21868 10.911C3.09524 10.7875 2.97962 10.6594 2.86868 10.5281C2.82181 10.4703 2.74993 10.4375 2.67649 10.4375H1.57806C1.47962 10.4375 1.41868 10.5469 1.47337 10.6297C2.67024 12.4875 4.75774 13.7188 7.13431 13.7188C10.8249 13.7188 13.8218 10.7485 13.8593 7.06877C13.8968 3.32971 10.8952 0.290649 7.15149 0.281274ZM5.17212 8.75002V7.56252H0.265869C0.197119 7.56252 0.140869 7.50627 0.140869 7.43752V6.56252C0.140869 6.49377 0.197119 6.43752 0.265869 6.43752H5.17212V5.25002C5.17212 5.14534 5.29399 5.08596 5.37524 5.15159L7.59243 6.90159C7.60737 6.91328 7.61945 6.92822 7.62776 6.94527C7.63607 6.96233 7.64039 6.98105 7.64039 7.00002C7.64039 7.019 7.63607 7.03772 7.62776 7.05477C7.61945 7.07183 7.60737 7.08677 7.59243 7.09846L5.37524 8.84846C5.29399 8.91252 5.17212 8.85471 5.17212 8.75002Z" fill="CurrentColor"/>
</svg>
