<svg width="35" height="36" viewBox="0 0 35 36" fill="none" xmlns="http://www.w3.org/2000/svg">
<g clip-path="url(#clip0_10899_9624)">
<path d="M17.5 0.374023C7.79545 0.374023 0 8.16948 0 17.874C0 27.5786 7.79545 35.374 17.5 35.374C27.2045 35.374 35 27.5786 35 17.874C35 8.16948 27.2045 0.374023 17.5 0.374023ZM27.0455 18.6695C27.0455 19.1468 26.7273 19.4649 26.25 19.4649H19.4886C19.25 19.4649 19.0909 19.624 19.0909 19.8627V26.624C19.0909 27.1013 18.7727 27.4195 18.2955 27.4195H16.7045C16.2273 27.4195 15.9091 27.1013 15.9091 26.624V19.8627C15.9091 19.624 15.75 19.4649 15.5114 19.4649H8.75C8.27273 19.4649 7.95455 19.1468 7.95455 18.6695V17.0786C7.95455 16.6013 8.27273 16.2831 8.75 16.2831H15.5114C15.75 16.2831 15.9091 16.124 15.9091 15.8854V9.12402C15.9091 8.64675 16.2273 8.32857 16.7045 8.32857H18.2955C18.7727 8.32857 19.0909 8.64675 19.0909 9.12402V15.8854C19.0909 16.124 19.25 16.2831 19.4886 16.2831H26.25C26.7273 16.2831 27.0455 16.6013 27.0455 17.0786V18.6695Z" fill="black"/>
</g>
<defs>
<clipPath id="clip0_10899_9624">
<rect width="35" height="35" fill="white" transform="translate(0 0.374023)"/>
</clipPath>
</defs>
</svg>
