<svg xmlns="http://www.w3.org/2000/svg" xmlns:xlink="http://www.w3.org/1999/xlink" version="1.1" width="30" height="30" viewBox="0 0 256 256" xml:space="preserve">
<g style="stroke: none; stroke-width: 0; stroke-dasharray: none; stroke-linecap: butt; stroke-linejoin: miter; stroke-miterlimit: 10; fill: none; fill-rule: nonzero; opacity: 1;" transform="translate(1.4065934065934016 1.4065934065934016) scale(2.81 2.81)" >
	<path d="M 38.877 40.375 L 38.877 40.375 c -9.415 0 -17.118 -7.703 -17.118 -17.118 v -6.139 C 21.759 7.703 29.462 0 38.877 0 h 0 c 9.415 0 17.118 7.703 17.118 17.118 v 6.139 C 55.995 32.672 48.292 40.375 38.877 40.375 z" style="stroke: none; stroke-width: 1; stroke-dasharray: none; stroke-linecap: butt; stroke-linejoin: miter; stroke-miterlimit: 10; fill: currentColor; fill-rule: nonzero; opacity: 1;" transform=" matrix(1 0 0 1 0 0) " stroke-linecap="round" />
	<path d="M 50.103 75.603 c 0 -10.209 7.969 -18.535 18.022 -19.154 c -3.98 -7.222 -11.159 -12.461 -19.609 -13.722 c -2.896 1.499 -6.169 2.363 -9.639 2.363 c -3.47 0 -6.743 -0.863 -9.639 -2.363 C 16.296 44.659 6.286 55.889 6.286 69.347 v 17.707 C 6.286 88.674 7.612 90 9.232 90 h 47.391 C 52.633 86.479 50.103 81.342 50.103 75.603 z" style="stroke: none; stroke-width: 1; stroke-dasharray: none; stroke-linecap: butt; stroke-linejoin: miter; stroke-miterlimit: 10; fill: currentColor; fill-rule: nonzero; opacity: 1;" transform=" matrix(1 0 0 1 0 0) " stroke-linecap="round" />
	<path d="M 69.317 61.206 c -7.951 0 -14.397 6.446 -14.397 14.397 C 54.92 83.554 61.366 90 69.317 90 c 7.951 0 14.397 -6.446 14.397 -14.397 C 83.714 67.652 77.268 61.206 69.317 61.206 z M 77.351 77.375 c 0 0.57 -0.462 1.032 -1.032 1.032 h -4.012 v 4.012 c 0 0.57 -0.462 1.032 -1.032 1.032 h -3.756 c -0.57 0 -1.032 -0.462 -1.032 -1.032 v -4.012 h -4.012 c -0.57 0 -1.032 -0.462 -1.032 -1.032 v -3.756 c 0 -0.57 0.462 -1.032 1.032 -1.032 h 4.012 v -4.012 c 0 -0.57 0.462 -1.032 1.032 -1.032 h 3.756 c 0.57 0 1.032 0.462 1.032 1.032 v 4.012 h 4.012 c 0.57 0 1.032 0.462 1.032 1.032 V 77.375 z" style="stroke: none; stroke-width: 1; stroke-dasharray: none; stroke-linecap: butt; stroke-linejoin: miter; stroke-miterlimit: 10; fill: currentColor; fill-rule: nonzero; opacity: 1;" transform=" matrix(1 0 0 1 0 0) " stroke-linecap="round" />
</g>
</svg>