<svg width="50" height="20" viewBox="0 0 50 20" fill="none" xmlns="http://www.w3.org/2000/svg">
<path d="M28.3464 0.723788C26.9152 1.08134 26.2044 1.89245 26.1974 3.17623C26.1894 4.67112 26.9679 5.35756 29.4644 6.05756C30.6778 6.39756 31.0902 6.9869 30.5162 7.55934C29.8648 8.20867 28.59 7.78756 28.4294 6.86934C28.3499 6.41112 28.3538 6.41245 27.0168 6.49245L25.8319 6.56312L25.8889 6.96445C25.9767 7.58312 26.4513 8.53823 26.8559 8.91068C28.0546 10.0138 31.3559 9.90068 32.486 8.7169L32.8166 8.37068L32.8801 8.77312C33.1125 10.2538 34.5106 11.6449 36.1191 11.9962L36.6356 12.1093L36.3305 12.5393C35.3234 13.958 35.2949 16.8593 36.2734 18.3662C37.771 20.6718 41.985 20.6049 43.3716 18.2538L43.6296 17.8162V19.9031H50.1606V17.6593H46.2602V11.1225H43.6296L43.6245 12.1225C43.6199 12.9393 43.5995 13.0876 43.5112 12.9318C43.0115 12.05 42.0381 11.3173 41.084 11.1056L40.5697 10.9911L41.0916 10.5693C42.7152 9.2569 43.7263 6.86245 43.4666 4.94556C42.7838 -0.0919905 36.0373 -0.16999 33.4677 4.82934C33.302 5.15112 33.1608 5.4249 33.1538 5.43756C33.1468 5.45023 32.9156 5.22512 32.6396 4.93823C32.0672 4.34201 31.6075 4.12379 30.0449 3.70756C28.591 3.32001 28.2935 3.04823 28.7821 2.55379C29.247 2.08379 30.2592 2.38823 30.4871 3.0669C30.6208 3.46445 30.5964 3.46068 32.142 3.35068L33.0358 3.2869L32.9788 2.90379C32.715 1.1289 30.6381 0.151343 28.3458 0.724454L28.3464 0.723788ZM0.544312 5.17068V9.56068H3.17489V6.04823H3.44225C3.86415 6.04823 4.11931 6.38201 4.93274 7.99957L5.69348 9.51134L7.15609 9.53823C7.96043 9.55312 8.61807 9.5389 8.61807 9.5069C8.61807 9.01245 6.97882 6.15934 6.52386 5.86201L6.27448 5.6989L6.77778 5.41579C8.64369 4.36512 8.29039 1.35512 6.24555 0.883343C5.98749 0.82401 4.68068 0.779565 3.17034 0.779565H0.544312V5.16956V5.17068ZM40.372 1.5449C44.4774 2.69734 44.1015 8.89245 39.7885 11.1542C35.3943 13.4587 31.4782 9.67556 33.5668 5.14423C34.7854 2.50045 37.9024 0.851788 40.3714 1.54557L40.372 1.5449ZM4.98749 2.75934C5.91146 3.26179 5.29844 4.18934 3.98977 4.26934L3.1751 4.31934V2.63379L3.9689 2.63512C4.42324 2.63579 4.85857 2.68934 4.98749 2.75934ZM38.9199 3.53556C38.1976 3.74179 37.4631 4.5269 37.4625 5.09312C37.4613 6.01823 38.1489 6.35179 39.2307 5.95134C39.8924 5.70645 40.061 5.70645 40.1836 5.95201C40.391 6.36957 39.711 6.79512 39.3144 6.49579C39.115 6.34579 38.3798 6.8189 38.3724 7.10201C38.3608 7.52823 39.3637 7.68956 39.978 7.36023C41.9288 6.31468 41.3749 4.07023 39.3515 4.8209C38.5427 5.1209 38.3689 5.13401 38.3689 4.89268C38.3689 4.51401 38.9191 4.24023 39.1592 4.49823C39.2573 4.60379 40.0011 4.07334 40.0011 3.89756C40.0011 3.63512 39.3422 3.41379 38.9191 3.53512L38.9199 3.53556ZM35.9918 5.64068C35.559 5.97756 35.5385 5.89001 36.3323 7.10201C36.821 7.84756 37.0088 8.21579 36.9902 8.39023C36.9577 8.68845 36.6468 8.76779 36.4282 8.53334C36.2893 8.38401 36.2532 8.39579 35.9245 8.6989C35.0941 9.46401 36.3563 10.1207 37.2941 9.41201C38.3245 8.63334 38.3261 8.15023 37.3017 6.54134C36.5073 5.29312 36.4708 5.26823 35.9914 5.64134L35.9918 5.64068ZM2.69493 11.0269C1.21084 11.2787 0.342039 12.212 0.330469 13.5669C0.318898 14.9493 1.15216 15.7369 3.21621 16.2925C4.48129 16.6331 4.89782 16.8931 4.89782 17.3411C4.89782 18.6029 2.79782 18.4767 2.57572 17.2018C2.49782 16.7569 2.50774 16.7593 1.16828 16.8373L-0.0195312 16.9067L0.0397663 17.3067C0.310634 19.1405 1.30196 19.9036 3.51063 19.978C5.26208 20.0367 5.86415 19.8542 6.62882 19.0318L7.15237 18.4687L7.34472 18.748C8.45753 20.3667 12.2166 20.4756 13.4509 18.9242C13.8119 18.4711 14.2168 17.6173 14.2582 17.2242C14.2873 16.9473 14.279 16.9425 13.179 16.5836L12.071 16.2218L11.9222 16.7031C11.4154 18.3438 9.50196 18.3625 9.08171 16.7313C8.93873 16.1769 8.95609 14.8527 9.11415 14.282C9.49534 12.9027 11.1055 12.6196 11.7588 13.8176C12.0313 14.3176 11.9582 14.3082 13.1947 14.0076C14.372 13.7213 14.3214 13.772 14.053 13.15C12.9883 10.6862 9.40939 10.1082 7.51167 12.0925L6.98233 12.6462L6.7627 12.2431C6.21539 11.238 4.48894 10.7218 2.69617 11.0269H2.69493ZM27.7565 11.0293C26.7517 11.2169 25.7592 11.8969 25.1984 12.7811C25.0484 13.018 25.0445 12.9987 25.0398 12.0729L25.035 11.1216H22.4044V14.146H19.7739V11.1216H17.1433V19.9022H19.7739V16.3898H22.4044V19.9022H25.035V17.9171L25.3191 18.3778C26.5011 20.2965 30.1567 20.6333 31.8203 18.9765C33.7455 17.0596 33.3679 12.6989 31.1724 11.494C30.3251 11.0289 28.8381 10.8265 27.7561 11.0285L27.7565 11.0293ZM4.16993 12.8282C4.32158 12.9127 4.49948 13.1413 4.59596 13.3765L4.76167 13.7802L6.53398 13.6885L6.47592 14.186C6.39927 14.8442 6.36497 14.8691 5.8565 14.6273C5.61704 14.5136 4.947 14.2929 4.36663 14.136C2.99348 13.766 2.82262 13.6867 2.75237 13.386C2.6222 12.8298 3.53047 12.4722 4.17076 12.8285L4.16993 12.8282ZM29.3121 13.1731C30.6555 13.5745 30.9276 16.8907 29.6817 17.6793C28.7513 18.268 27.5741 17.7669 27.298 16.6638C26.7495 14.472 27.7658 12.7113 29.3121 13.1731ZM40.279 13.1707C41.8398 13.6369 41.8079 17.4093 40.2396 17.8638C38.9786 18.2287 38.1396 17.2862 38.146 15.5125C38.153 13.6693 38.9646 12.7776 40.279 13.1707Z" fill="white"/>
</svg>
