<svg width="24" height="15" viewBox="0 0 24 15" fill="none" xmlns="http://www.w3.org/2000/svg">
<path d="M23.837 6.91657C23.6249 6.63254 18.5085 0 12 0C5.49147 0 0.37505 6.63254 0.163033 6.91657C0.0572636 7.05577 0 7.22578 0 7.4006C0 7.57543 0.0572636 7.74544 0.163033 7.88464C0.37505 8.16867 5.49147 14.8012 12 14.8012C18.5085 14.8012 23.6249 8.16867 23.837 7.88464C23.9427 7.74544 24 7.57543 24 7.4006C24 7.22578 23.9427 7.05577 23.837 6.91657ZM12 13.2011C7.23961 13.2011 3.10327 8.87272 1.83517 7.4006C3.10327 5.92448 7.22761 1.60013 12 1.60013C16.7724 1.60013 20.8967 5.92848 22.1648 7.4006C20.8967 8.87673 16.7724 13.2011 12 13.2011Z" fill="black" fill-opacity="0.5"/>
<path d="M12 3.86035C11.2998 3.86035 10.6153 4.06799 10.0331 4.457C9.45093 4.84601 8.99716 5.39893 8.72921 6.04583C8.46125 6.69273 8.39114 7.40457 8.52774 8.09132C8.66435 8.77807 9.00153 9.40889 9.49664 9.904C9.99176 10.3991 10.6226 10.7363 11.3093 10.8729C11.9961 11.0095 12.7079 10.9394 13.3548 10.6714C14.0017 10.4035 14.5546 9.94972 14.9436 9.36752C15.3327 8.78532 15.5403 8.10084 15.5403 7.40064C15.5392 6.46202 15.1659 5.56215 14.5022 4.89845C13.8385 4.23474 12.9386 3.86141 12 3.86035ZM12 9.3408C11.6163 9.3408 11.2412 9.22701 10.9221 9.01382C10.6031 8.80064 10.3544 8.49762 10.2075 8.14311C10.0607 7.78859 10.0223 7.39849 10.0971 7.02213C10.172 6.64578 10.3568 6.30008 10.6281 6.02874C10.8994 5.75741 11.2451 5.57262 11.6215 5.49776C11.9979 5.4229 12.388 5.46132 12.7425 5.60817C13.097 5.75501 13.4 6.00369 13.6132 6.32275C13.8264 6.6418 13.9402 7.01691 13.9402 7.40064C13.9391 7.91488 13.7344 8.40775 13.3707 8.77137C13.0071 9.13499 12.5142 9.33974 12 9.3408Z" fill="black" fill-opacity="0.5"/>
</svg>
