<svg width="16" height="16" viewBox="0 0 16 16" fill="none" xmlns="http://www.w3.org/2000/svg">
<g clip-path="url(#clip0_10720_6793)">
<path d="M0.420155 15.9744C0.165466 15.8929 0.028748 15.6901 0.0102519 15.3664L0 15.187L0.471914 13.349C0.731468 12.3381 0.994264 11.3126 1.0559 11.0699C1.73003 8.41667 2.46497 5.57688 2.49404 5.51299C2.5467 5.39724 2.69508 5.24263 2.80977 5.18399L2.90881 5.13336L4.23521 5.12832L5.56161 5.12328L5.44783 4.94614C4.89529 4.08592 4.78016 3.05506 5.12798 2.08237C5.60333 0.753042 6.90222 -0.109843 8.24553 0.0113111C8.67623 0.0501557 9.01401 0.151483 9.39763 0.35691C10.2463 0.811368 10.8358 1.6267 11.025 2.60754C11.0592 2.78509 11.0655 2.87578 11.0658 3.19432C11.0661 3.51436 11.0601 3.6021 11.0261 3.7769C10.9476 4.18011 10.7727 4.61723 10.5536 4.95796C10.5005 5.04056 10.457 5.11155 10.457 5.11571C10.457 5.11987 11.051 5.12554 11.7769 5.12832L13.0967 5.13336L13.1973 5.1848C13.3155 5.24523 13.435 5.36514 13.4986 5.48731C13.5375 5.56198 13.6372 5.93699 13.9178 7.06321C13.9355 7.13397 14.0176 7.46067 14.1004 7.7892C14.2384 8.33672 14.5525 9.5839 15.0215 11.4467C15.2685 12.4278 15.6575 13.9739 15.8099 14.5804C15.8784 14.8534 15.9505 15.1094 15.9701 15.1494C16.0003 15.2112 16.0043 15.246 15.9966 15.3792C15.9912 15.4728 15.9725 15.5772 15.9504 15.6377C15.9054 15.7611 15.7823 15.8935 15.6569 15.9534L15.5686 15.9956L8.03807 15.999C1.34157 16.002 0.497836 15.9993 0.420155 15.9744ZM8.38237 4.41885C8.92671 4.23658 9.27982 3.68553 9.23038 3.09548C9.20349 2.77469 9.09028 2.52337 8.8688 2.29282C8.62253 2.03647 8.36472 1.92544 8.01158 1.92365C7.79204 1.92253 7.63403 1.95949 7.43933 2.05748C7.22733 2.16418 7.01335 2.38628 6.9107 2.60618C6.78085 2.88433 6.74446 3.12883 6.7912 3.40907C6.84046 3.7044 6.94299 3.91272 7.13781 4.1133C7.31326 4.29393 7.54007 4.41716 7.77963 4.46201C7.94039 4.49211 8.2243 4.47178 8.38237 4.41885Z" fill="black"/>
</g>
<defs>
<clipPath id="clip0_10720_6793">
<rect width="16" height="16" fill="white"/>
</clipPath>
</defs>
</svg>
