<svg width="16" height="16" viewBox="0 0 16 16" fill="none" xmlns="http://www.w3.org/2000/svg">
<g clip-path="url(#clip0_10720_6796)">
<path d="M7.50089 15.9798C5.639 15.8532 3.86373 15.0587 2.50058 13.7421C2.00932 13.2676 1.68809 12.8846 1.33216 12.3489C-0.239424 9.98357 -0.434945 6.90222 0.822594 4.3183C1.47975 2.968 2.4336 1.88878 3.61048 1.16395C5.70217 -0.12429 7.96907 -0.367789 9.26359 0.556723C9.70607 0.872728 10.1225 1.4195 10.2878 1.90148C10.4578 2.39705 10.47 2.77854 10.3449 3.69022C10.2725 4.2182 10.2695 4.48022 10.3331 4.72476C10.3936 4.95727 10.4716 5.08873 10.673 5.29808C11.0484 5.68827 11.4435 5.78044 12.2402 5.6637C13.375 5.49743 13.9503 5.56077 14.5487 5.9179C14.8388 6.09102 15.2406 6.46029 15.4339 6.73148C16.2416 7.86424 16.1823 9.65761 15.2733 11.5884C14.8272 12.5359 14.2039 13.3685 13.4643 14.0044C11.7967 15.4384 9.70887 16.13 7.50089 15.9798ZM6.92213 13.6655C7.16669 13.5538 7.35915 13.362 7.47465 13.115C7.59434 12.859 7.61697 12.6408 7.55067 12.3818C7.41514 11.8523 6.99948 11.5289 6.45292 11.5277C6.15894 11.527 5.92452 11.6187 5.70362 11.8207C5.46468 12.0393 5.3663 12.2556 5.34943 12.5994C5.33303 12.9337 5.40631 13.1506 5.61359 13.3814C5.96428 13.7717 6.45607 13.8785 6.92213 13.6655ZM10.8715 12.9999C11.0836 12.9216 11.3429 12.6837 11.4526 12.4666C11.674 12.0287 11.5931 11.5052 11.2511 11.1629C10.6925 10.6038 9.7714 10.7746 9.43038 11.5005C9.18034 12.0328 9.41105 12.6907 9.9422 12.9601C10.2348 13.1084 10.5417 13.1216 10.8715 12.9999ZM3.68902 11.054C4.19957 10.9337 4.56994 10.4739 4.56265 9.96946C4.5572 9.59218 4.46044 9.36722 4.20046 9.12737C3.67731 8.64476 2.86619 8.76237 2.47848 9.37705C2.07459 10.0174 2.468 10.9155 3.21673 11.0624C3.41792 11.1019 3.49124 11.1006 3.68902 11.054ZM12.8952 9.4219C13.1299 9.30978 13.3146 9.12577 13.4315 8.88762C13.513 8.72151 13.5228 8.66938 13.5228 8.40338C13.5228 8.12957 13.5144 8.08825 13.4198 7.89594C13.3022 7.65684 13.1364 7.49639 12.8815 7.37511C12.7335 7.30469 12.6679 7.29323 12.4123 7.29314C12.1339 7.29305 12.1027 7.29974 11.9195 7.39897C11.6818 7.5277 11.496 7.72292 11.3853 7.96024C11.3139 8.11328 11.3028 8.177 11.3052 8.4197C11.3073 8.63391 11.3237 8.7369 11.3737 8.84924C11.4422 9.00324 11.6409 9.23945 11.793 9.34788C12.0822 9.55398 12.5525 9.58556 12.8952 9.4219ZM4.16283 6.92335C4.38642 6.82017 4.57883 6.622 4.69625 6.37396C4.78299 6.19073 4.79493 6.13318 4.79489 5.89861C4.79486 5.66025 4.78385 5.60941 4.69207 5.42281C4.529 5.09129 4.25454 4.87913 3.89183 4.80421C3.41756 4.70624 2.90881 4.95967 2.67406 5.41083C2.58182 5.58813 2.5746 5.62458 2.57425 5.91503C2.57391 6.19955 2.58223 6.24462 2.6655 6.40909C2.94584 6.96282 3.5945 7.1856 4.16283 6.92335ZM7.45325 4.58296C7.68032 4.48031 7.94358 4.2035 8.03271 3.97367C8.24468 3.42709 8.00817 2.80468 7.49181 2.55027C6.76662 2.19296 5.90614 2.68856 5.86182 3.48906C5.84442 3.80322 5.93978 4.07661 6.14667 4.30581C6.29535 4.47052 6.40421 4.54543 6.60207 4.61918C6.82348 4.70172 7.22869 4.68448 7.45325 4.58296Z" fill="black"/>
</g>
<defs>
<clipPath id="clip0_10720_6796">
<rect width="16" height="16" fill="white"/>
</clipPath>
</defs>
</svg>
